PathFileType	4	(X/Y/Z)	/Users/mathieubourgeois/Desktop/Analyse/Traitement/Sujet_01/Data/Transformed_Sujet_01_velo_80.trc
DataRate	CameraRate	NumFrames	NumMarkers	Units	OrigDataRate	OrigDataStartFrame	OrigNumFrames
120.000000	120.000000	6	35	mm	120.000000	1223	1957
Frame#	Time	RFHD			LFHD			RBHD			LBHD			RSHO			LSHO			CLAV			STRN			T10			RBWT			LBWT			RFWT			LFWT			RRAD			RWRA			RWRB			RCAR			RHUM			LHUM			LRAD			LWRA			LWRB			LCAR			RKNI			RKNE			LKNI			LKNE			RANE			RANI			RTOE			RHEE			LTOE			LANI			LANE			LHEE			
		X1	Y1	Z1	X2	Y2	Z2	X3	Y3	Z3	X4	Y4	Z4	X5	Y5	Z5	X6	Y6	Z6	X7	Y7	Z7	X8	Y8	Z8	X9	Y9	Z9	X10	Y10	Z10	X11	Y11	Z11	X12	Y12	Z12	X13	Y13	Z13	X14	Y14	Z14	X15	Y15	Z15	X16	Y16	Z16	X17	Y17	Z17	X18	Y18	Z18	X19	Y19	Z19	X20	Y20	Z20	X21	Y21	Z21	X22	Y22	Z22	X23	Y23	Z23	X24	Y24	Z24	X25	Y25	Z25	X26	Y26	Z26	X27	Y27	Z27	X28	Y28	Z28	X29	Y29	Z29	X30	Y30	Z30	X31	Y31	Z31	X32	Y32	Z32	X33	Y33	Z33	X34	Y34	Z34	X35	Y35	Z35	

1224	10.19166666666667	52.53870391845699	1577.761962890625	369.1095275878905	155.3740692138672	1548.226318359375	304.365509033203	-37.39530181884768	1563.254638671875	247.6865844726562	65.39754486083983	1529.199340820312	173.480743408203	-9.945437431335492	1385.831665039062	343.5534362792968	-5.434351921081558	1382.240600585938	122.5523757934569	11.39679718017575	1324.733154296875	253.3285064697265	-36.18112564086917	1226.955688476562	244.1113739013671	-222.6869659423828	1379.483520507812	253.5290985107421	-410.6735839843751	1109.671508789062	336.4511413574218	-422.1347351074219	1104.316040039062	216.3460845947264	-235.2277069091797	1066.839111328125	376.2603759765624	-248.7296905517578	1078.48095703125	151.7925415039062	136.779800415039	1176.798217773438	480.7124938964843	298.2706298828124	1024.295288085938	407.4891967773438	318.0951538085937	1046.830444335938	467.4125061035156	399.6878356933593	1033.807739257812	404.1219787597656	88.33849334716791	1136.254638671875	456.3522949218749	101.533332824707	1138.539672851562	85.20948028564447	153.6754302978516	1169.431762695312	60.10930633544917	317.306640625	1039.620239257812	163.545669555664	341.9830627441406	1050.815551757812	100.2285842895508	402.34814453125	1043.517333984375	173.0020141601562	-145.4920196533203	623.570068359375	326.5952453613281	-151.9592285156251	660.123046875	441.6770324707031	43.32833862304685	942.6923828125	191.2906188964843	27.23409271240234	926.2551879882812	62.92536544799799	-238.5687255859376	326.7817993164062	426.5616455078124	-205.0963592529297	321.0685424804688	351.4461364746094	-80.7282333374024	206.326904296875	429.5647583007812	-302.1986694335938	302.2086486816406	377.2295227050781	46.28629684448241	543.6629638671875	137.2348480224609	-111.3934173583985	630.6426391601562	184.5563812255859	-131.1611175537109	617.1776123046875	107.0871047973632	-204.1534118652344	575.6464233398438	155.8286743164062	
1225	10.2	52.40833663940425	1576.971923828125	369.2652282714843	155.2653656005859	1547.262939453125	304.5852050781249	-37.41160583496097	1562.662109375	247.7361450195312	65.36857604980467	1528.4150390625	173.6421966552734	-10.54975700378422	1385.357543945312	343.5122680664062	-5.831152915954605	1381.823486328125	122.691192626953	10.78530406951901	1324.20166015625	253.3708038330077	-37.21090316772464	1226.45947265625	244.233413696289	-223.2319641113282	1379.551391601562	253.2723693847655	-411.7959289550782	1109.638061523438	336.2060546874999	-423.1235656738281	1103.9072265625	216.1056060791014	-236.3042755126954	1067.355834960938	376.315460205078	-249.4120330810547	1078.01708984375	151.5492401123046	136.2902221679687	1176.639282226562	480.6040344238281	298.0897216796874	1024.387084960938	407.6277160644531	317.7968749999999	1046.759521484375	467.6088562011719	399.5467834472656	1033.8466796875	404.3675537109375	87.88121795654291	1136.048583984375	456.2161560058593	101.2198638916015	1138.4169921875	85.16699218749994	153.4101257324219	1169.37060546875	60.20909881591792	317.0309753417969	1039.65625	163.7563171386718	341.7610778808594	1050.88720703125	100.4869766235351	402.0873107910156	1043.6875	173.2409362792969	-150.9387817382813	627.5045166015625	327.7538757324218	-150.2061767578126	662.8953247070312	442.4044189453124	42.63523864746092	940.46484375	190.7998046874999	27.06287956237792	923.2361450195312	62.95604324340815	-247.810287475586	332.4479370117188	426.8975830078124	-214.3450012207032	326.5763854980469	351.5574035644531	-91.59130096435553	210.42919921875	429.5282897949219	-312.0157165527344	308.8414611816406	377.4561767578124	57.37720108032225	539.199462890625	137.7963104248047	-103.1440353393555	623.580810546875	184.7300720214843	-122.8608322143555	610.0559692382812	106.9965209960937	-194.7315216064453	566.603515625	156.3771820068359	
1226	10.20833333333333	52.26969909667964	1576.219360351562	369.4496765136718	155.1215667724609	1546.3037109375	304.914093017578	-37.44657135009768	1562.093383789062	247.834243774414	65.3407516479492	1527.639282226562	173.8666687011718	-11.17482280731205	1384.96923828125	343.4961547851562	-6.194867134094253	1381.4716796875	122.8565063476562	10.16056728363034	1323.65966796875	253.4319610595702	-38.20946884155276	1225.986328125	244.2451171874999	-223.7877807617188	1379.60009765625	252.9808502197264	-412.8966979980469	1109.615844726562	335.8577270507811	-424.0103149414062	1103.493286132812	215.7700042724608	-237.3776550292969	1067.905883789062	376.3047485351561	-249.9656524658203	1077.462036132812	151.3197631835937	135.7677154541015	1176.52685546875	480.4451293945312	297.8917846679687	1024.452392578125	407.7445373535156	317.4349365234374	1046.645751953125	467.7601623535156	399.4146423339843	1033.874267578125	404.5930786132812	87.46462249755854	1135.869140625	456.0153503417968	100.8502883911133	1138.325317382812	85.19056701660151	153.1621856689453	1169.321166992188	60.33401489257808	316.7776489257812	1039.6884765625	163.9942779541015	341.5416259765625	1050.961547851562	100.7456817626953	401.8536987304688	1043.854370117188	173.4859313964844	-150.3603210449219	630.3389282226562	328.5496215820312	-147.8684082031251	666.0511474609375	443.2157897949218	41.93947219848631	936.7716064453125	190.3151855468749	26.71718788146972	919.0235595703125	63.17892074584955	-256.6141357421876	339.0009460449219	427.1083374023437	-223.2693328857422	332.8482971191406	351.6189270019531	-102.0740814208985	215.3931427001953	429.5000305175781	-321.3841857910157	316.2545776367188	377.5646667480468	67.92314147949217	535.689453125	136.386245727539	-96.49633789062503	616.06591796875	184.825454711914	-114.2831573486328	601.9949951171875	107.2294387817382	-185.6106262207032	556.9099731445312	157.0519561767578	
1227	10.21666666666667	52.17175674438472	1575.48876953125	369.7093200683593	154.9993591308593	1545.351928710938	305.2646179199218	-37.46748352050784	1561.573120117188	248.0135650634765	65.28509521484372	1526.902099609375	174.1604614257812	-11.79556846618657	1384.609741210938	343.5329284667968	-7.192378044128433	1378.509643554688	123.4965362548827	9.528959274291962	1323.178100585938	253.5568542480468	-39.33026123046878	1225.638549804688	244.3485260009765	-224.3470764160157	1379.637329101562	252.6923980712889	-413.9378662109376	1109.615112304688	335.4644775390624	-424.7300720214844	1103.0517578125	215.3985137939452	-238.3767547607422	1068.47314453125	376.3526611328124	-250.3737487792969	1076.906127929688	151.2032775878905	135.2919464111328	1176.416381835938	480.2917785644531	297.7492370605468	1024.551513671875	407.8179626464844	317.1920166015624	1046.652099609375	467.8774108886719	399.3081359863281	1033.903442382812	404.8133544921875	87.01149749755854	1135.718505859375	455.7839660644531	100.5879745483398	1138.251586914062	85.24974060058588	152.9265747070312	1169.285034179688	60.4955558776855	316.5616149902344	1039.702392578125	164.2160491943359	341.3399353027344	1051.056396484375	100.9993057250976	401.6443786621094	1043.993896484375	173.7251892089844	-149.1969146728516	633.7188110351562	329.4237060546874	-145.0361328125001	669.5306396484375	444.1797790527343	41.19384002685545	932.2509765625	189.9476165771484	26.17396545410156	913.8081665039062	63.49767684936518	-264.8043823242188	346.3311157226562	427.2832946777343	-231.5317687988282	339.8616943359375	351.6535339355469	-112.0550155639649	220.9945831298828	429.54931640625	-330.1465454101563	324.4692687988281	377.5980834960937	75.76197814941405	529.480224609375	136.534439086914	-90.247917175293	607.5932006835938	184.9651489257812	-106.3523025512695	593.4063110351562	107.5193252563476	-176.6312713623047	546.5513916015625	157.2182006835937	
1228	10.225	52.05177688598629	1574.843994140625	370.0321655273436	154.8653564453125	1544.445922851562	305.6590576171874	-37.50564575195315	1561.10107421875	248.2398834228515	65.27611541748044	1526.243896484375	174.4204864501952	-12.43771076202397	1384.3388671875	343.5126647949218	-7.523188591003433	1378.169311523438	123.7678985595702	8.83646297454831	1322.690307617188	253.6268005371093	-40.20449447631839	1225.28173828125	244.4653167724609	-224.8962707519532	1379.666625976562	252.4079437255858	-414.9139709472657	1109.639892578125	335.0104675292968	-425.3761596679688	1102.631469726562	214.9405364990233	-239.3060150146485	1069.021728515625	376.404327392578	-250.6784820556641	1076.2275390625	151.1011505126952	134.8095703124999	1176.291625976562	480.0880126953124	297.6406555175781	1024.66650390625	407.8205871582031	316.9640197753906	1046.69482421875	467.9056396484375	399.2288513183593	1033.915893554688	404.9828796386719	86.62919616699213	1135.5947265625	455.4924621582031	100.2948303222656	1138.241821289062	85.41262817382807	152.6972045898438	1169.270141601562	60.682201385498	316.385986328125	1039.691772460938	164.3760681152343	341.1853332519531	1051.134887695312	101.1741485595703	401.4839782714844	1044.100463867188	173.8997497558594	-147.45751953125	637.6394653320312	330.3005981445312	-141.7522430419922	673.2942504882812	445.2388916015624	40.41474533081053	926.6160888671875	189.6432647705078	25.46581459045409	907.5460205078125	63.8397483825683	-272.4060668945313	354.3840942382812	427.4066162109374	-239.0661773681641	347.5863952636719	351.6567993164062	-121.504508972168	227.247543334961	429.5679931640625	-338.2275085449219	333.5220642089844	377.6268920898437	84.78115844726561	524.2766723632812	136.1437683105468	-78.66713714599612	597.9864501953125	185.4474792480468	-99.01545715332033	583.8124389648438	107.906639099121	-168.1385650634766	535.5650634765625	157.7770538330078	
1229	10.23333333333333	51.92344665527339	1574.252563476562	370.3695678710936	154.7431030273437	1543.620727539062	306.0992431640624	-37.54105758666995	1560.699829101562	248.4939880371093	65.24664306640622	1525.583129882812	174.7727966308593	-13.11578845977787	1384.19873046875	343.4453430175781	-7.830236434936539	1377.915283203125	124.0477066040038	8.377747535705536	1322.683349609375	253.572525024414	-43.19068908691409	1224.139526367188	245.7866668701171	-225.4235534667969	1379.669677734375	252.1545104980468	-415.8093872070313	1109.623657226562	334.4589843749999	-425.8162231445312	1102.203857421875	214.4322204589843	-240.1856994628907	1069.57958984375	376.4749450683593	-250.8431243896485	1075.748413085938	151.0540618896484	134.3953552246093	1176.221435546875	479.9005432128906	297.5568542480468	1024.770874023438	407.7578125	316.8470153808593	1046.848022460938	467.8849487304688	399.1647033691406	1033.919677734375	405.0379638671875	86.30648040771479	1135.469116210938	455.1255187988281	100.1035232543945	1138.242797851562	85.56386566162104	152.5547790527344	1169.309936523438	60.84322738647456	316.2485656738281	1039.665161132812	164.4540252685547	341.0536193847656	1051.196655273438	101.2840881347656	401.3615417480469	1044.16064453125	173.9950714111328	-138.1497039794922	641.9793701171875	330.9357910156249	-138.0793457031251	677.3175659179688	446.3565368652343	39.63093948364256	919.9351196289062	189.4463653564453	24.39502525329589	899.729736328125	63.87608337402338	-279.2256164550782	363.2405090332031	427.4871520996093	-246.0045623779297	355.99609375	351.6184387207031	-130.3519439697266	234.1270141601563	429.5611572265625	-345.6056823730469	343.3811645507812	377.6434020996093	92.39605712890624	516.958251953125	136.7453460693359	-71.06153106689456	587.896484375	185.695068359375	-92.50520324707033	573.2772216796875	108.3660888671875	-160.1819763183594	523.9360961914062	158.1506958007812	
